<mxfile host="app.diagrams.net" modified="2024-02-05T03:04:48.727Z" agent="Mozilla/5.0 (Macintosh; Intel Mac OS X 10_15_7) AppleWebKit/537.36 (KHTML, like Gecko) Chrome/121.0.0.0 Safari/537.36" etag="fRaFBS925QcnXTORlZ0c" version="23.1.1" type="github" pages="3">
  <diagram id="C5RBs43oDa-KdzZeNtuy" name="Page-1">
    <mxGraphModel dx="1194" dy="581" grid="1" gridSize="10" guides="1" tooltips="1" connect="1" arrows="1" fold="1" page="1" pageScale="1" pageWidth="827" pageHeight="1169" math="0" shadow="0">
      <root>
        <mxCell id="WIyWlLk6GJQsqaUBKTNV-0" />
        <mxCell id="WIyWlLk6GJQsqaUBKTNV-1" parent="WIyWlLk6GJQsqaUBKTNV-0" />
        <mxCell id="WIyWlLk6GJQsqaUBKTNV-2" value="" style="rounded=0;html=1;jettySize=auto;orthogonalLoop=1;fontSize=11;endArrow=block;endFill=0;endSize=8;strokeWidth=1;shadow=0;labelBackgroundColor=none;edgeStyle=orthogonalEdgeStyle;entryX=0.5;entryY=0;entryDx=0;entryDy=0;" parent="WIyWlLk6GJQsqaUBKTNV-1" source="WIyWlLk6GJQsqaUBKTNV-3" target="T90Ym-xEpQvYlLe6QhxQ-2" edge="1">
          <mxGeometry relative="1" as="geometry">
            <mxPoint x="160" y="190" as="targetPoint" />
            <Array as="points" />
          </mxGeometry>
        </mxCell>
        <mxCell id="WIyWlLk6GJQsqaUBKTNV-3" value="开始" style="rounded=1;whiteSpace=wrap;html=1;fontSize=12;glass=0;strokeWidth=1;shadow=0;" parent="WIyWlLk6GJQsqaUBKTNV-1" vertex="1">
          <mxGeometry x="160" y="80" width="120" height="40" as="geometry" />
        </mxCell>
        <mxCell id="WIyWlLk6GJQsqaUBKTNV-11" value="结束" style="rounded=1;whiteSpace=wrap;html=1;fontSize=12;glass=0;strokeWidth=1;shadow=0;" parent="WIyWlLk6GJQsqaUBKTNV-1" vertex="1">
          <mxGeometry x="160" y="710" width="120" height="40" as="geometry" />
        </mxCell>
        <mxCell id="T90Ym-xEpQvYlLe6QhxQ-1" value="通过swagger.json 生成 server.ts + model.ts&lt;br&gt;" style="text;html=1;align=center;verticalAlign=middle;resizable=0;points=[];autosize=1;strokeColor=none;fillColor=none;" vertex="1" parent="WIyWlLk6GJQsqaUBKTNV-1">
          <mxGeometry x="95" y="10" width="250" height="30" as="geometry" />
        </mxCell>
        <mxCell id="T90Ym-xEpQvYlLe6QhxQ-4" value="" style="edgeStyle=orthogonalEdgeStyle;rounded=0;orthogonalLoop=1;jettySize=auto;html=1;" edge="1" parent="WIyWlLk6GJQsqaUBKTNV-1" source="T90Ym-xEpQvYlLe6QhxQ-2" target="T90Ym-xEpQvYlLe6QhxQ-3">
          <mxGeometry relative="1" as="geometry" />
        </mxCell>
        <mxCell id="T90Ym-xEpQvYlLe6QhxQ-2" value="读取swagger.json文件" style="rounded=0;whiteSpace=wrap;html=1;" vertex="1" parent="WIyWlLk6GJQsqaUBKTNV-1">
          <mxGeometry x="160" y="200" width="120" height="60" as="geometry" />
        </mxCell>
        <mxCell id="T90Ym-xEpQvYlLe6QhxQ-6" style="edgeStyle=orthogonalEdgeStyle;rounded=0;orthogonalLoop=1;jettySize=auto;html=1;exitX=0.5;exitY=1;exitDx=0;exitDy=0;" edge="1" parent="WIyWlLk6GJQsqaUBKTNV-1" source="T90Ym-xEpQvYlLe6QhxQ-3" target="T90Ym-xEpQvYlLe6QhxQ-7">
          <mxGeometry relative="1" as="geometry">
            <mxPoint x="220" y="430" as="targetPoint" />
          </mxGeometry>
        </mxCell>
        <mxCell id="T90Ym-xEpQvYlLe6QhxQ-11" style="edgeStyle=orthogonalEdgeStyle;rounded=0;orthogonalLoop=1;jettySize=auto;html=1;exitX=1;exitY=0.5;exitDx=0;exitDy=0;" edge="1" parent="WIyWlLk6GJQsqaUBKTNV-1" source="T90Ym-xEpQvYlLe6QhxQ-3" target="T90Ym-xEpQvYlLe6QhxQ-10">
          <mxGeometry relative="1" as="geometry">
            <mxPoint x="300" y="340" as="targetPoint" />
          </mxGeometry>
        </mxCell>
        <mxCell id="T90Ym-xEpQvYlLe6QhxQ-3" value="通过工具转换为转换为通用schema对象" style="rounded=0;whiteSpace=wrap;html=1;" vertex="1" parent="WIyWlLk6GJQsqaUBKTNV-1">
          <mxGeometry x="160" y="310" width="120" height="60" as="geometry" />
        </mxCell>
        <mxCell id="VXgkYvGt1A5pjnqbzbpQ-1" value="" style="edgeStyle=orthogonalEdgeStyle;rounded=0;orthogonalLoop=1;jettySize=auto;html=1;" edge="1" parent="WIyWlLk6GJQsqaUBKTNV-1" source="T90Ym-xEpQvYlLe6QhxQ-7" target="VXgkYvGt1A5pjnqbzbpQ-0">
          <mxGeometry relative="1" as="geometry" />
        </mxCell>
        <mxCell id="G_AFz4EZTDHBIZpu7Kcp-3" value="" style="edgeStyle=orthogonalEdgeStyle;rounded=0;orthogonalLoop=1;jettySize=auto;html=1;" edge="1" parent="WIyWlLk6GJQsqaUBKTNV-1" source="T90Ym-xEpQvYlLe6QhxQ-7" target="G_AFz4EZTDHBIZpu7Kcp-0">
          <mxGeometry relative="1" as="geometry" />
        </mxCell>
        <mxCell id="T90Ym-xEpQvYlLe6QhxQ-7" value="通过tsc 与自定义模板内容生成modal.ts、service.ts文件，并自动导入model.ts中的类型定义" style="whiteSpace=wrap;html=1;rounded=0;" vertex="1" parent="WIyWlLk6GJQsqaUBKTNV-1">
          <mxGeometry x="160" y="435" width="120" height="80" as="geometry" />
        </mxCell>
        <UserObject label="通过工具转换为转换为通用schema对象" link="data:page/id,BLYI4MHv30hgCf7Cu07O" id="T90Ym-xEpQvYlLe6QhxQ-10">
          <mxCell style="shape=process;whiteSpace=wrap;html=1;backgroundOutline=1;" vertex="1" parent="WIyWlLk6GJQsqaUBKTNV-1">
            <mxGeometry x="410" y="310" width="120" height="60" as="geometry" />
          </mxCell>
        </UserObject>
        <UserObject label="通过tsc 与自定义模板内容生成modal.ts、service.ts文件，并自动导入model.ts中的类型定义" link="data:page/id,ksO05aSB4LIkVNdEJrk4" id="VXgkYvGt1A5pjnqbzbpQ-0">
          <mxCell style="shape=process;whiteSpace=wrap;html=1;backgroundOutline=1;rounded=0;" vertex="1" parent="WIyWlLk6GJQsqaUBKTNV-1">
            <mxGeometry x="410" y="410" width="120" height="130" as="geometry" />
          </mxCell>
        </UserObject>
        <mxCell id="G_AFz4EZTDHBIZpu7Kcp-1" value="" style="edgeStyle=orthogonalEdgeStyle;rounded=0;orthogonalLoop=1;jettySize=auto;html=1;" edge="1" parent="WIyWlLk6GJQsqaUBKTNV-1" source="G_AFz4EZTDHBIZpu7Kcp-0" target="WIyWlLk6GJQsqaUBKTNV-11">
          <mxGeometry relative="1" as="geometry" />
        </mxCell>
        <mxCell id="G_AFz4EZTDHBIZpu7Kcp-5" value="" style="edgeStyle=orthogonalEdgeStyle;rounded=0;orthogonalLoop=1;jettySize=auto;html=1;" edge="1" parent="WIyWlLk6GJQsqaUBKTNV-1" source="G_AFz4EZTDHBIZpu7Kcp-0" target="G_AFz4EZTDHBIZpu7Kcp-4">
          <mxGeometry relative="1" as="geometry" />
        </mxCell>
        <mxCell id="G_AFz4EZTDHBIZpu7Kcp-0" value="通过 tsc 生成vitetest代码&lt;br&gt;" style="whiteSpace=wrap;html=1;rounded=0;" vertex="1" parent="WIyWlLk6GJQsqaUBKTNV-1">
          <mxGeometry x="160" y="580" width="120" height="80" as="geometry" />
        </mxCell>
        <mxCell id="G_AFz4EZTDHBIZpu7Kcp-4" value="通过 tsc 生成vitetest代码" style="shape=process;whiteSpace=wrap;html=1;backgroundOutline=1;rounded=0;" vertex="1" parent="WIyWlLk6GJQsqaUBKTNV-1">
          <mxGeometry x="410" y="590" width="120" height="60" as="geometry" />
        </mxCell>
      </root>
    </mxGraphModel>
  </diagram>
  <diagram id="BLYI4MHv30hgCf7Cu07O" name="通过工具转换为转换为通用schema对象">
    <mxGraphModel dx="1194" dy="581" grid="1" gridSize="10" guides="1" tooltips="1" connect="1" arrows="1" fold="1" page="1" pageScale="1" pageWidth="827" pageHeight="1169" math="0" shadow="0">
      <root>
        <mxCell id="0" />
        <mxCell id="1" parent="0" />
        <mxCell id="pNM9WBQq2KD_7x2lzaUY-1" value="" style="rounded=1;whiteSpace=wrap;html=1;" vertex="1" parent="1">
          <mxGeometry x="300" y="110" width="120" height="60" as="geometry" />
        </mxCell>
        <mxCell id="pNM9WBQq2KD_7x2lzaUY-2" value="" style="rounded=0;whiteSpace=wrap;html=1;" vertex="1" parent="1">
          <mxGeometry x="330" y="230" width="120" height="60" as="geometry" />
        </mxCell>
      </root>
    </mxGraphModel>
  </diagram>
  <diagram id="ksO05aSB4LIkVNdEJrk4" name="第 3 页">
    <mxGraphModel dx="1194" dy="581" grid="1" gridSize="10" guides="1" tooltips="1" connect="1" arrows="1" fold="1" page="1" pageScale="1" pageWidth="827" pageHeight="1169" math="0" shadow="0">
      <root>
        <mxCell id="0" />
        <mxCell id="1" parent="0" />
      </root>
    </mxGraphModel>
  </diagram>
</mxfile>
